<?xml version="1.0" encoding="utf-8" standalone="no"?>
<!DOCTYPE svg PUBLIC "-//W3C//DTD SVG 1.1//EN"
  "http://www.w3.org/Graphics/SVG/1.1/DTD/svg11.dtd">
<svg height="309.422496pt" version="1.1" viewBox="0 0 410.645 309.422496" width="410.645pt" xmlns="http://www.w3.org/2000/svg" xmlns:xlink="http://www.w3.org/1999/xlink">
 <metadata>
  <rdf:RDF xmlns:cc="http://creativecommons.org/ns#" xmlns:dc="http://purl.org/dc/elements/1.1/" xmlns:rdf="http://www.w3.org/1999/02/22-rdf-syntax-ns#">
   <cc:Work>
    <dc:type rdf:resource="http://purl.org/dc/dcmitype/StillImage"/>
    <dc:date>2021-12-15T23:30:44.238736</dc:date>
    <dc:format>image/svg+xml</dc:format>
    <dc:creator>
     <cc:Agent>
      <dc:title>Matplotlib v3.4.3, https://matplotlib.org/</dc:title>
     </cc:Agent>
    </dc:creator>
   </cc:Work>
  </rdf:RDF>
 </metadata>
 <defs>
  <style type="text/css">*{stroke-linecap:butt;stroke-linejoin:round;}</style>
 </defs>
 <g id="figure_1">
  <g id="patch_1">
   <path d="M 0 309.422496 
L 410.645 309.422496 
L 410.645 0 
L 0 0 
z
" style="fill:#ffffff;"/>
  </g>
  <g id="axes_1">
   <g id="patch_2">
    <path d="M 46.325 274.972496 
L 403.445 274.972496 
L 403.445 8.860496 
L 46.325 8.860496 
z
" style="fill:#ffffff;"/>
   </g>
   <g id="matplotlib.axis_1">
    <g id="xtick_1">
     <g id="line2d_1">
      <defs>
       <path d="M 0 0 
L 0 3.5 
" id="m2eb376aec3" style="stroke:#000000;stroke-width:0.8;"/>
      </defs>
      <g>
       <use style="stroke:#000000;stroke-width:0.8;" x="62.557727" xlink:href="#m2eb376aec3" y="274.972496"/>
      </g>
     </g>
     <g id="text_1">
      <!-- 0 -->
      <g transform="translate(60.057727 288.847496)scale(0.1 -0.1)">
       <defs>
        <path d="M 225 2537 
Q 250 3200 412 3587 
Q 575 3975 875 4225 
Q 1175 4475 1612 4475 
Q 2050 4475 2375 4112 
Q 2700 3750 2800 3200 
Q 2900 2650 2862 1937 
Q 2825 1225 2612 775 
Q 2400 325 1975 150 
Q 1550 -25 1125 187 
Q 700 400 525 750 
Q 350 1100 275 1487 
Q 200 1875 225 2537 
z
M 750 2687 
Q 675 2000 800 1462 
Q 925 925 1212 700 
Q 1500 475 1800 612 
Q 2100 750 2237 1162 
Q 2375 1575 2375 2062 
Q 2375 2550 2337 2950 
Q 2300 3350 2112 3675 
Q 1925 4000 1612 4012 
Q 1300 4025 1062 3700 
Q 825 3375 750 2687 
z
" id="SimHei-30" transform="scale(0.015625)"/>
       </defs>
       <use xlink:href="#SimHei-30"/>
      </g>
     </g>
    </g>
    <g id="xtick_2">
     <g id="line2d_2">
      <g>
       <use style="stroke:#000000;stroke-width:0.8;" x="127.553632" xlink:href="#m2eb376aec3" y="274.972496"/>
      </g>
     </g>
     <g id="text_2">
      <!-- 200 -->
      <g transform="translate(120.053632 288.847496)scale(0.1 -0.1)">
       <defs>
        <path d="M 300 250 
Q 325 625 650 925 
Q 975 1225 1475 1862 
Q 1975 2500 2125 2850 
Q 2275 3200 2237 3450 
Q 2200 3700 2000 3862 
Q 1800 4025 1537 4000 
Q 1275 3975 1037 3800 
Q 800 3625 675 3275 
L 200 3350 
Q 400 3925 712 4187 
Q 1025 4450 1450 4475 
Q 1700 4500 1900 4462 
Q 2100 4425 2312 4287 
Q 2525 4150 2662 3875 
Q 2800 3600 2762 3212 
Q 2725 2825 2375 2287 
Q 2025 1750 1025 600 
L 2825 600 
L 2825 150 
L 300 150 
L 300 250 
z
" id="SimHei-32" transform="scale(0.015625)"/>
       </defs>
       <use xlink:href="#SimHei-32"/>
       <use x="50" xlink:href="#SimHei-30"/>
       <use x="100" xlink:href="#SimHei-30"/>
      </g>
     </g>
    </g>
    <g id="xtick_3">
     <g id="line2d_3">
      <g>
       <use style="stroke:#000000;stroke-width:0.8;" x="192.549537" xlink:href="#m2eb376aec3" y="274.972496"/>
      </g>
     </g>
     <g id="text_3">
      <!-- 400 -->
      <g transform="translate(185.049537 288.847496)scale(0.1 -0.1)">
       <defs>
        <path d="M 2000 1100 
L 75 1100 
L 75 1525 
L 2100 4450 
L 2475 4450 
L 2475 1525 
L 3075 1525 
L 3075 1100 
L 2475 1100 
L 2475 150 
L 2000 150 
L 2000 1100 
z
M 2000 1525 
L 2000 3500 
L 600 1525 
L 2000 1525 
z
" id="SimHei-34" transform="scale(0.015625)"/>
       </defs>
       <use xlink:href="#SimHei-34"/>
       <use x="50" xlink:href="#SimHei-30"/>
       <use x="100" xlink:href="#SimHei-30"/>
      </g>
     </g>
    </g>
    <g id="xtick_4">
     <g id="line2d_4">
      <g>
       <use style="stroke:#000000;stroke-width:0.8;" x="257.545442" xlink:href="#m2eb376aec3" y="274.972496"/>
      </g>
     </g>
     <g id="text_4">
      <!-- 600 -->
      <g transform="translate(250.045442 288.847496)scale(0.1 -0.1)">
       <defs>
        <path d="M 250 1612 
Q 275 1975 387 2225 
Q 500 2475 725 2850 
L 1750 4450 
L 2325 4450 
L 1275 2800 
Q 1950 2975 2350 2750 
Q 2750 2525 2887 2237 
Q 3025 1950 3037 1612 
Q 3050 1275 2937 950 
Q 2825 625 2537 362 
Q 2250 100 1737 75 
Q 1225 50 862 262 
Q 500 475 362 862 
Q 225 1250 250 1612 
z
M 1025 787 
Q 1250 550 1625 525 
Q 2000 500 2250 775 
Q 2500 1050 2500 1575 
Q 2500 2100 2187 2300 
Q 1875 2500 1487 2450 
Q 1100 2400 925 2075 
Q 750 1750 775 1387 
Q 800 1025 1025 787 
z
" id="SimHei-36" transform="scale(0.015625)"/>
       </defs>
       <use xlink:href="#SimHei-36"/>
       <use x="50" xlink:href="#SimHei-30"/>
       <use x="100" xlink:href="#SimHei-30"/>
      </g>
     </g>
    </g>
    <g id="xtick_5">
     <g id="line2d_5">
      <g>
       <use style="stroke:#000000;stroke-width:0.8;" x="322.541347" xlink:href="#m2eb376aec3" y="274.972496"/>
      </g>
     </g>
     <g id="text_5">
      <!-- 800 -->
      <g transform="translate(315.041347 288.847496)scale(0.1 -0.1)">
       <defs>
        <path d="M 175 1375 
Q 175 1675 325 1962 
Q 475 2250 825 2425 
Q 525 2600 425 2812 
Q 325 3025 312 3300 
Q 300 3575 387 3775 
Q 475 3975 650 4150 
Q 825 4325 1037 4387 
Q 1250 4450 1500 4450 
Q 1750 4450 1950 4400 
Q 2150 4350 2375 4187 
Q 2600 4025 2700 3725 
Q 2800 3425 2687 3025 
Q 2575 2625 2100 2400 
Q 2525 2275 2700 2012 
Q 2875 1750 2875 1375 
Q 2875 1000 2762 775 
Q 2650 550 2512 400 
Q 2375 250 2137 162 
Q 1900 75 1537 75 
Q 1175 75 912 162 
Q 650 250 475 425 
Q 300 600 237 837 
Q 175 1075 175 1375 
z
M 687 1400 
Q 675 1100 787 875 
Q 900 650 1200 587 
Q 1500 525 1825 600 
Q 2150 675 2275 950 
Q 2400 1225 2362 1500 
Q 2325 1775 2050 1962 
Q 1775 2150 1450 2125 
Q 1125 2100 912 1900 
Q 700 1700 687 1400 
z
M 775 3350 
Q 775 3100 950 2875 
Q 1125 2650 1500 2650 
Q 1875 2650 2062 2875 
Q 2250 3100 2237 3412 
Q 2225 3725 2012 3875 
Q 1800 4025 1437 4000 
Q 1075 3975 925 3787 
Q 775 3600 775 3350 
z
" id="SimHei-38" transform="scale(0.015625)"/>
       </defs>
       <use xlink:href="#SimHei-38"/>
       <use x="50" xlink:href="#SimHei-30"/>
       <use x="100" xlink:href="#SimHei-30"/>
      </g>
     </g>
    </g>
    <g id="xtick_6">
     <g id="line2d_6">
      <g>
       <use style="stroke:#000000;stroke-width:0.8;" x="387.537252" xlink:href="#m2eb376aec3" y="274.972496"/>
      </g>
     </g>
     <g id="text_6">
      <!-- 1000 -->
      <g transform="translate(377.537252 288.847496)scale(0.1 -0.1)">
       <defs>
        <path d="M 1400 3600 
Q 1075 3275 575 2975 
L 575 3450 
Q 1200 3875 1600 4450 
L 1900 4450 
L 1900 150 
L 1400 150 
L 1400 3600 
z
" id="SimHei-31" transform="scale(0.015625)"/>
       </defs>
       <use xlink:href="#SimHei-31"/>
       <use x="50" xlink:href="#SimHei-30"/>
       <use x="100" xlink:href="#SimHei-30"/>
       <use x="150" xlink:href="#SimHei-30"/>
      </g>
     </g>
    </g>
    <g id="text_7">
     <!-- Number of Generation -->
     <g transform="translate(174.885 300.972496)scale(0.1 -0.1)">
      <defs>
       <path d="M 2850 125 
L 2225 125 
L 850 3225 
L 825 3225 
L 825 125 
L 250 125 
L 250 4400 
L 875 4400 
L 2250 1300 
L 2275 1300 
L 2275 4400 
L 2850 4400 
L 2850 125 
z
" id="SimHei-4e" transform="scale(0.015625)"/>
       <path d="M 2800 125 
L 2300 125 
L 2300 650 
Q 2100 375 1862 225 
Q 1625 75 1250 75 
Q 800 75 575 325 
Q 350 575 350 950 
L 350 2925 
L 850 2925 
L 850 1125 
Q 850 825 1000 650 
Q 1150 475 1400 475 
Q 1725 475 2012 812 
Q 2300 1150 2300 1650 
L 2300 2925 
L 2800 2925 
L 2800 125 
z
" id="SimHei-75" transform="scale(0.015625)"/>
       <path d="M 3050 125 
L 2550 125 
L 2550 2150 
Q 2550 2300 2500 2400 
Q 2450 2500 2300 2500 
Q 2125 2500 1975 2312 
Q 1825 2125 1825 1825 
L 1825 125 
L 1325 125 
L 1325 2150 
Q 1325 2300 1275 2400 
Q 1225 2500 1075 2500 
Q 900 2500 750 2312 
Q 600 2125 600 1825 
L 600 125 
L 100 125 
L 100 2925 
L 600 2925 
L 600 2550 
Q 725 2750 900 2862 
Q 1075 2975 1275 2975 
Q 1475 2975 1612 2862 
Q 1750 2750 1800 2550 
Q 1925 2750 2087 2862 
Q 2250 2975 2450 2975 
Q 2750 2975 2900 2812 
Q 3050 2650 3050 2350 
L 3050 125 
z
" id="SimHei-6d" transform="scale(0.015625)"/>
       <path d="M 2825 1525 
Q 2825 800 2475 437 
Q 2125 75 1625 75 
Q 1350 75 1150 175 
Q 950 275 800 500 
L 800 125 
L 300 125 
L 300 4400 
L 800 4400 
L 800 2550 
Q 950 2775 1150 2887 
Q 1350 3000 1625 3000 
Q 2125 3000 2475 2625 
Q 2825 2250 2825 1525 
z
M 2275 1525 
Q 2275 2000 2087 2275 
Q 1900 2550 1525 2550 
Q 1225 2550 1012 2275 
Q 800 2000 800 1525 
Q 800 1050 1012 787 
Q 1225 525 1525 525 
Q 1900 525 2087 787 
Q 2275 1050 2275 1525 
z
" id="SimHei-62" transform="scale(0.015625)"/>
       <path d="M 2850 1075 
Q 2800 625 2450 350 
Q 2100 75 1625 75 
Q 1025 75 637 462 
Q 250 850 250 1525 
Q 250 2200 637 2587 
Q 1025 2975 1625 2975 
Q 2150 2975 2487 2637 
Q 2825 2300 2825 1525 
L 800 1525 
Q 800 975 1037 750 
Q 1275 525 1625 525 
Q 1900 525 2075 662 
Q 2250 800 2300 1075 
L 2850 1075 
z
M 2250 1925 
Q 2200 2275 2025 2412 
Q 1850 2550 1575 2550 
Q 1325 2550 1125 2412 
Q 925 2275 825 1925 
L 2250 1925 
z
" id="SimHei-65" transform="scale(0.015625)"/>
       <path d="M 2500 2425 
Q 2025 2500 1700 2287 
Q 1375 2075 1150 1550 
L 1150 125 
L 650 125 
L 650 2925 
L 1150 2925 
L 1150 2200 
Q 1375 2600 1712 2787 
Q 2050 2975 2500 2975 
L 2500 2425 
z
" id="SimHei-72" transform="scale(0.015625)"/>
       <path id="SimHei-20" transform="scale(0.015625)"/>
       <path d="M 2925 1525 
Q 2925 875 2525 475 
Q 2125 75 1575 75 
Q 1025 75 625 475 
Q 225 875 225 1525 
Q 225 2175 625 2575 
Q 1025 2975 1575 2975 
Q 2125 2975 2525 2575 
Q 2925 2175 2925 1525 
z
M 2375 1525 
Q 2375 2025 2125 2275 
Q 1875 2525 1575 2525 
Q 1275 2525 1025 2275 
Q 775 2025 775 1525 
Q 775 1025 1025 775 
Q 1275 525 1575 525 
Q 1875 525 2125 775 
Q 2375 1025 2375 1525 
z
" id="SimHei-6f" transform="scale(0.015625)"/>
       <path d="M 2850 3825 
Q 2725 3900 2550 3950 
Q 2375 4000 2100 4000 
Q 1825 4000 1725 3862 
Q 1625 3725 1625 3525 
L 1625 2925 
L 2650 2925 
L 2650 2525 
L 1625 2525 
L 1625 125 
L 1125 125 
L 1125 2525 
L 275 2525 
L 275 2925 
L 1125 2925 
L 1125 3500 
Q 1125 3950 1400 4200 
Q 1675 4450 2125 4450 
Q 2400 4450 2562 4412 
Q 2725 4375 2850 4325 
L 2850 3825 
z
" id="SimHei-66" transform="scale(0.015625)"/>
       <path d="M 2850 75 
L 2425 75 
L 2350 425 
Q 2250 275 2037 175 
Q 1825 75 1575 75 
Q 1050 75 637 562 
Q 225 1050 225 2125 
Q 225 3300 600 3875 
Q 975 4450 1625 4450 
Q 2200 4450 2525 4025 
Q 2850 3600 2850 2925 
L 2300 2925 
Q 2300 3450 2125 3712 
Q 1950 3975 1625 3975 
Q 1225 3975 1025 3562 
Q 825 3150 825 2175 
Q 825 1250 1075 900 
Q 1325 550 1650 550 
Q 1975 550 2162 787 
Q 2350 1025 2350 1525 
L 2350 1800 
L 1575 1800 
L 1575 2275 
L 2850 2275 
L 2850 75 
z
" id="SimHei-47" transform="scale(0.015625)"/>
       <path d="M 2800 125 
L 2300 125 
L 2300 1925 
Q 2300 2225 2150 2400 
Q 2000 2575 1750 2575 
Q 1425 2575 1137 2237 
Q 850 1900 850 1400 
L 850 125 
L 350 125 
L 350 2925 
L 850 2925 
L 850 2400 
Q 1050 2675 1287 2825 
Q 1525 2975 1900 2975 
Q 2350 2975 2575 2725 
Q 2800 2475 2800 2100 
L 2800 125 
z
" id="SimHei-6e" transform="scale(0.015625)"/>
       <path d="M 2875 125 
L 2275 125 
Q 2225 175 2200 262 
Q 2175 350 2175 475 
Q 2000 275 1750 175 
Q 1500 75 1225 75 
Q 825 75 550 275 
Q 275 475 275 850 
Q 275 1225 525 1450 
Q 775 1675 1300 1750 
Q 1650 1800 1912 1875 
Q 2175 1950 2175 2075 
Q 2175 2225 2062 2375 
Q 1950 2525 1575 2525 
Q 1275 2525 1137 2412 
Q 1000 2300 950 2100 
L 400 2100 
Q 450 2500 762 2737 
Q 1075 2975 1575 2975 
Q 2125 2975 2400 2725 
Q 2675 2475 2675 2025 
L 2675 650 
Q 2675 500 2725 375 
Q 2775 250 2875 125 
z
M 2175 1050 
L 2175 1550 
Q 2025 1500 1887 1462 
Q 1750 1425 1425 1375 
Q 1050 1325 937 1200 
Q 825 1075 825 900 
Q 825 750 937 637 
Q 1050 525 1275 525 
Q 1500 525 1762 650 
Q 2025 775 2175 1050 
z
" id="SimHei-61" transform="scale(0.015625)"/>
       <path d="M 2750 200 
Q 2625 150 2462 112 
Q 2300 75 2025 75 
Q 1575 75 1300 325 
Q 1025 575 1025 1025 
L 1025 2525 
L 175 2525 
L 175 2925 
L 1025 2925 
L 1025 3900 
L 1525 3900 
L 1525 2925 
L 2550 2925 
L 2550 2525 
L 1525 2525 
L 1525 1000 
Q 1525 800 1625 662 
Q 1725 525 2000 525 
Q 2275 525 2450 575 
Q 2625 625 2750 700 
L 2750 200 
z
" id="SimHei-74" transform="scale(0.015625)"/>
       <path d="M 1800 3725 
L 1300 3725 
L 1300 4375 
L 1800 4375 
L 1800 3725 
z
M 1800 125 
L 1300 125 
L 1300 2925 
L 1800 2925 
L 1800 125 
z
" id="SimHei-69" transform="scale(0.015625)"/>
      </defs>
      <use xlink:href="#SimHei-4e"/>
      <use x="50" xlink:href="#SimHei-75"/>
      <use x="100" xlink:href="#SimHei-6d"/>
      <use x="150" xlink:href="#SimHei-62"/>
      <use x="200" xlink:href="#SimHei-65"/>
      <use x="250" xlink:href="#SimHei-72"/>
      <use x="300" xlink:href="#SimHei-20"/>
      <use x="350" xlink:href="#SimHei-6f"/>
      <use x="400" xlink:href="#SimHei-66"/>
      <use x="450" xlink:href="#SimHei-20"/>
      <use x="500" xlink:href="#SimHei-47"/>
      <use x="550" xlink:href="#SimHei-65"/>
      <use x="600" xlink:href="#SimHei-6e"/>
      <use x="650" xlink:href="#SimHei-65"/>
      <use x="700" xlink:href="#SimHei-72"/>
      <use x="750" xlink:href="#SimHei-61"/>
      <use x="800" xlink:href="#SimHei-74"/>
      <use x="850" xlink:href="#SimHei-69"/>
      <use x="900" xlink:href="#SimHei-6f"/>
      <use x="950" xlink:href="#SimHei-6e"/>
     </g>
    </g>
   </g>
   <g id="matplotlib.axis_2">
    <g id="ytick_1">
     <g id="line2d_7">
      <defs>
       <path d="M 0 0 
L -3.5 0 
" id="me385b22f71" style="stroke:#000000;stroke-width:0.8;"/>
      </defs>
      <g>
       <use style="stroke:#000000;stroke-width:0.8;" x="46.325" xlink:href="#me385b22f71" y="242.454229"/>
      </g>
     </g>
     <g id="text_8">
      <!-- 700 -->
      <g transform="translate(24.325 245.891729)scale(0.1 -0.1)">
       <defs>
        <path d="M 850 150 
Q 1300 2050 2425 3925 
L 275 3925 
L 275 4375 
L 2950 4375 
L 2950 3950 
Q 1775 2050 1400 150 
L 850 150 
z
" id="SimHei-37" transform="scale(0.015625)"/>
       </defs>
       <use xlink:href="#SimHei-37"/>
       <use x="50" xlink:href="#SimHei-30"/>
       <use x="100" xlink:href="#SimHei-30"/>
      </g>
     </g>
    </g>
    <g id="ytick_2">
     <g id="line2d_8">
      <g>
       <use style="stroke:#000000;stroke-width:0.8;" x="46.325" xlink:href="#me385b22f71" y="203.818108"/>
      </g>
     </g>
     <g id="text_9">
      <!-- 800 -->
      <g transform="translate(24.325 207.255608)scale(0.1 -0.1)">
       <use xlink:href="#SimHei-38"/>
       <use x="50" xlink:href="#SimHei-30"/>
       <use x="100" xlink:href="#SimHei-30"/>
      </g>
     </g>
    </g>
    <g id="ytick_3">
     <g id="line2d_9">
      <g>
       <use style="stroke:#000000;stroke-width:0.8;" x="46.325" xlink:href="#me385b22f71" y="165.181986"/>
      </g>
     </g>
     <g id="text_10">
      <!-- 900 -->
      <g transform="translate(24.325 168.619486)scale(0.1 -0.1)">
       <defs>
        <path d="M 800 75 
Q 1350 1000 1700 1750 
Q 1075 1650 662 1912 
Q 250 2175 162 2625 
Q 75 3075 175 3437 
Q 275 3800 487 4037 
Q 700 4275 1000 4375 
Q 1300 4475 1537 4475 
Q 1775 4475 2025 4375 
Q 2275 4275 2475 4075 
Q 2675 3875 2750 3662 
Q 2825 3450 2825 3112 
Q 2825 2775 2575 2250 
Q 2325 1725 1350 75 
L 800 75 
z
M 662 2875 
Q 700 2550 937 2337 
Q 1175 2125 1450 2150 
Q 1725 2175 1887 2300 
Q 2050 2425 2200 2725 
Q 2300 3100 2250 3362 
Q 2200 3625 1987 3800 
Q 1775 3975 1525 3975 
Q 1375 4000 1137 3900 
Q 900 3800 762 3500 
Q 625 3200 662 2875 
z
" id="SimHei-39" transform="scale(0.015625)"/>
       </defs>
       <use xlink:href="#SimHei-39"/>
       <use x="50" xlink:href="#SimHei-30"/>
       <use x="100" xlink:href="#SimHei-30"/>
      </g>
     </g>
    </g>
    <g id="ytick_4">
     <g id="line2d_10">
      <g>
       <use style="stroke:#000000;stroke-width:0.8;" x="46.325" xlink:href="#me385b22f71" y="126.545865"/>
      </g>
     </g>
     <g id="text_11">
      <!-- 1000 -->
      <g transform="translate(19.325 129.983365)scale(0.1 -0.1)">
       <use xlink:href="#SimHei-31"/>
       <use x="50" xlink:href="#SimHei-30"/>
       <use x="100" xlink:href="#SimHei-30"/>
       <use x="150" xlink:href="#SimHei-30"/>
      </g>
     </g>
    </g>
    <g id="ytick_5">
     <g id="line2d_11">
      <g>
       <use style="stroke:#000000;stroke-width:0.8;" x="46.325" xlink:href="#me385b22f71" y="87.909743"/>
      </g>
     </g>
     <g id="text_12">
      <!-- 1100 -->
      <g transform="translate(19.325 91.347243)scale(0.1 -0.1)">
       <use xlink:href="#SimHei-31"/>
       <use x="50" xlink:href="#SimHei-31"/>
       <use x="100" xlink:href="#SimHei-30"/>
       <use x="150" xlink:href="#SimHei-30"/>
      </g>
     </g>
    </g>
    <g id="ytick_6">
     <g id="line2d_12">
      <g>
       <use style="stroke:#000000;stroke-width:0.8;" x="46.325" xlink:href="#me385b22f71" y="49.273622"/>
      </g>
     </g>
     <g id="text_13">
      <!-- 1200 -->
      <g transform="translate(19.325 52.711122)scale(0.1 -0.1)">
       <use xlink:href="#SimHei-31"/>
       <use x="50" xlink:href="#SimHei-32"/>
       <use x="100" xlink:href="#SimHei-30"/>
       <use x="150" xlink:href="#SimHei-30"/>
      </g>
     </g>
    </g>
    <g id="ytick_7">
     <g id="line2d_13">
      <g>
       <use style="stroke:#000000;stroke-width:0.8;" x="46.325" xlink:href="#me385b22f71" y="10.6375"/>
      </g>
     </g>
     <g id="text_14">
      <!-- 1300 -->
      <g transform="translate(19.325 14.075)scale(0.1 -0.1)">
       <defs>
        <path d="M 250 1225 
L 700 1300 
Q 800 975 1025 762 
Q 1250 550 1587 562 
Q 1925 575 2125 837 
Q 2325 1100 2300 1437 
Q 2275 1775 2037 1962 
Q 1800 2150 1275 2225 
L 1275 2550 
Q 1800 2600 2037 2825 
Q 2275 3050 2250 3412 
Q 2225 3775 1925 3937 
Q 1625 4100 1287 3975 
Q 950 3850 750 3275 
L 300 3350 
Q 450 3800 712 4100 
Q 975 4400 1425 4450 
Q 1875 4500 2212 4337 
Q 2550 4175 2687 3837 
Q 2825 3500 2725 3100 
Q 2625 2700 2150 2400 
Q 2500 2250 2687 1950 
Q 2875 1650 2812 1162 
Q 2750 675 2375 375 
Q 2000 75 1525 87 
Q 1050 100 700 387 
Q 350 675 250 1225 
z
" id="SimHei-33" transform="scale(0.015625)"/>
       </defs>
       <use xlink:href="#SimHei-31"/>
       <use x="50" xlink:href="#SimHei-33"/>
       <use x="100" xlink:href="#SimHei-30"/>
       <use x="150" xlink:href="#SimHei-30"/>
      </g>
     </g>
    </g>
    <g id="text_15">
     <!-- Value -->
     <g transform="translate(14.075 154.416496)rotate(-90)scale(0.1 -0.1)">
      <defs>
       <path d="M 3050 4400 
L 1800 75 
L 1300 75 
L 50 4400 
L 650 4400 
L 1525 1125 
L 1575 1125 
L 2450 4400 
L 3050 4400 
z
" id="SimHei-56" transform="scale(0.015625)"/>
       <path d="M 1825 125 
L 1325 125 
L 1325 4400 
L 1825 4400 
L 1825 125 
z
" id="SimHei-6c" transform="scale(0.015625)"/>
      </defs>
      <use xlink:href="#SimHei-56"/>
      <use x="50" xlink:href="#SimHei-61"/>
      <use x="100" xlink:href="#SimHei-6c"/>
      <use x="150" xlink:href="#SimHei-75"/>
      <use x="200" xlink:href="#SimHei-65"/>
     </g>
    </g>
   </g>
   <g id="line2d_14">
    <path clip-path="url(#p1be9faec43)" d="M 62.557727 20.956496 
L 63.207686 35.697227 
L 63.532666 36.36064 
L 64.507604 43.684616 
L 64.832584 44.506882 
L 65.157563 46.879945 
L 65.482543 47.95419 
L 65.807523 47.967283 
L 66.132502 46.569321 
L 66.457482 44.277702 
L 66.782461 45.638885 
L 67.107441 45.363974 
L 67.43242 48.19398 
L 67.7574 47.274377 
L 68.082379 47.898665 
L 68.732338 46.406198 
L 69.057318 45.854639 
L 69.382297 47.261261 
L 69.707277 46.329932 
L 70.032256 46.092215 
L 70.357236 45.714281 
L 70.682215 47.588793 
L 71.007195 46.510169 
L 71.332174 48.231289 
L 71.657154 45.718926 
L 72.307113 47.079305 
L 72.632093 46.980839 
L 72.957072 46.660336 
L 73.282052 45.906125 
L 73.607031 46.387445 
L 73.932011 48.784311 
L 74.25699 48.750486 
L 74.58197 45.499699 
L 74.906949 44.361519 
L 75.231929 47.184631 
L 75.556908 45.195162 
L 76.206867 46.958244 
L 76.531847 44.207145 
L 76.856826 46.052787 
L 77.181806 44.327446 
L 77.506785 44.383478 
L 78.156744 46.188107 
L 78.481724 43.070033 
L 78.806704 45.644482 
L 79.131683 45.496904 
L 79.456663 46.684187 
L 79.781642 46.468774 
L 80.106622 45.682824 
L 80.431601 42.936444 
L 80.756581 44.299339 
L 81.731519 41.873898 
L 82.056499 43.405045 
L 82.381478 42.922159 
L 82.706458 43.739219 
L 83.031437 45.002999 
L 83.356417 45.493779 
L 83.681396 44.243025 
L 84.006376 44.201517 
L 84.331355 44.71512 
L 84.656335 46.26916 
L 84.981314 45.501039 
L 85.306294 47.340548 
L 85.631274 45.493664 
L 85.956253 46.297466 
L 86.281233 46.353307 
L 86.606212 47.522292 
L 86.931192 48.006488 
L 87.256171 47.161887 
L 87.581151 46.901412 
L 87.90613 46.486728 
L 88.23111 43.802403 
L 88.556089 45.566711 
L 88.881069 42.582361 
L 89.206048 44.098629 
L 89.531028 44.403757 
L 89.856007 44.884901 
L 90.180987 47.524834 
L 90.505966 47.486753 
L 90.830946 45.217953 
L 91.155925 43.977339 
L 91.480905 46.517239 
L 91.805885 45.024475 
L 92.130864 44.504542 
L 92.455844 47.533024 
L 92.780823 45.898854 
L 93.105803 45.398226 
L 93.430782 46.123817 
L 93.755762 46.074252 
L 94.080741 45.563991 
L 94.405721 44.821362 
L 95.05568 42.676773 
L 95.380659 44.325549 
L 95.705639 44.564504 
L 96.030618 42.267668 
L 96.355598 45.482267 
L 96.680577 44.863923 
L 97.005557 43.339906 
L 97.330536 43.87055 
L 97.655516 45.344544 
L 97.980495 43.999797 
L 98.305475 43.869617 
L 98.630455 45.229277 
L 98.955434 43.610351 
L 99.280414 45.246409 
L 99.605393 44.138378 
L 99.930373 46.399472 
L 100.255352 44.04083 
L 100.580332 44.131483 
L 100.905311 41.652369 
L 101.55527 48.215655 
L 101.88025 48.085559 
L 102.530209 42.973888 
L 102.855188 42.136013 
L 103.180168 45.842464 
L 103.830127 44.883217 
L 104.155106 45.520171 
L 104.480086 45.486621 
L 104.805066 47.834547 
L 105.130045 43.918639 
L 105.780004 44.50513 
L 106.104984 42.87119 
L 106.754943 44.816456 
L 107.079922 44.491175 
L 107.404902 44.738855 
L 107.729881 44.210122 
L 108.054861 42.678412 
L 108.37984 42.74383 
L 108.70482 41.640856 
L 109.029799 42.295153 
L 110.004738 46.50107 
L 110.329717 46.08102 
L 110.654697 45.898482 
L 111.304656 44.113487 
L 111.629636 44.574367 
L 112.279595 47.185094 
L 112.604574 47.162257 
L 113.254533 45.253653 
L 113.579513 44.504884 
L 114.229472 46.545868 
L 114.554451 46.621583 
L 114.879431 45.573125 
L 115.20441 47.194563 
L 115.52939 45.842628 
L 115.854369 47.65356 
L 116.179349 46.816778 
L 117.154287 49.149011 
L 117.479267 47.008043 
L 118.129226 44.16846 
L 118.454206 44.228938 
L 118.779185 45.267966 
L 119.104165 43.772692 
L 119.429144 44.571732 
L 120.079103 43.123026 
L 120.404083 45.238063 
L 120.729062 45.309655 
L 121.054042 48.943908 
L 121.379021 47.836141 
L 121.704001 48.924454 
L 122.35396 45.257668 
L 122.678939 45.900108 
L 123.003919 43.318963 
L 123.328898 45.516681 
L 123.653878 44.854908 
L 123.978857 45.200144 
L 124.303837 43.23525 
L 124.628817 45.596346 
L 124.953796 43.080764 
L 125.278776 44.269385 
L 125.603755 47.454936 
L 125.928735 45.340671 
L 126.578694 45.924961 
L 127.553632 43.449364 
L 127.878612 43.131827 
L 128.203591 44.593174 
L 128.528571 44.789229 
L 128.85355 48.344094 
L 129.17853 44.342091 
L 129.503509 43.510809 
L 129.828489 46.123361 
L 130.153468 45.133465 
L 130.478448 44.884188 
L 130.803428 44.793667 
L 131.128407 45.004493 
L 131.453387 45.593129 
L 131.778366 48.834714 
L 132.103346 46.320737 
L 132.428325 45.224388 
L 132.753305 44.546887 
L 133.078284 45.947414 
L 133.403264 45.626687 
L 133.728243 48.72685 
L 134.053223 48.539083 
L 134.378202 48.63195 
L 134.703182 47.961862 
L 135.028161 48.36637 
L 135.67812 42.949566 
L 136.0031 47.07896 
L 136.328079 45.745165 
L 136.653059 46.276808 
L 136.978038 45.582675 
L 137.303018 46.712192 
L 137.627998 49.996579 
L 137.952977 48.85937 
L 138.277957 47.14732 
L 138.602936 44.302162 
L 138.927916 45.597156 
L 139.252895 45.862738 
L 139.577875 45.232113 
L 139.902854 42.706626 
L 140.227834 44.035821 
L 140.552813 44.173464 
L 140.877793 44.544584 
L 141.202772 43.741566 
L 141.527752 46.946505 
L 142.177711 47.306788 
L 142.50269 48.429049 
L 143.152649 44.981016 
L 143.477629 45.497542 
L 143.802609 48.182598 
L 144.127588 47.5534 
L 144.452568 49.356601 
L 144.777547 47.94702 
L 145.102527 47.867676 
L 145.427506 47.080646 
L 145.752486 47.605428 
L 146.077465 46.23624 
L 146.402445 45.777164 
L 146.727424 44.227183 
L 147.052404 47.496011 
L 147.377383 47.685938 
L 148.027342 49.182396 
L 148.352322 48.767984 
L 149.002281 46.137505 
L 149.32726 46.958748 
L 149.977219 47.637909 
L 150.302199 47.999323 
L 150.627179 49.117878 
L 150.952158 46.436875 
L 151.277138 46.473049 
L 151.602117 47.064442 
L 151.927097 47.293504 
L 152.577056 45.895303 
L 152.902035 47.216396 
L 153.227015 46.958943 
L 153.551994 45.923412 
L 153.876974 48.130971 
L 154.201953 47.544851 
L 154.526933 45.320893 
L 154.851912 47.365651 
L 155.176892 45.91226 
L 155.501871 45.80428 
L 155.826851 43.966199 
L 156.15183 44.833908 
L 156.47681 45.237866 
L 156.80179 47.352527 
L 157.126769 45.978728 
L 157.451749 46.143596 
L 157.776728 47.336856 
L 158.101708 46.428825 
L 158.426687 47.075275 
L 158.751667 47.04144 
L 159.076646 45.82461 
L 159.401626 48.616213 
L 159.726605 48.607112 
L 160.051585 48.274634 
L 160.376564 47.054649 
L 160.701544 49.313733 
L 161.026523 50.241558 
L 162.001462 45.935393 
L 162.326441 43.182343 
L 162.651421 44.145281 
L 162.9764 43.391591 
L 163.62636 45.886334 
L 163.951339 46.653256 
L 164.276319 48.339563 
L 164.601298 48.638394 
L 164.926278 45.77813 
L 165.251257 49.287556 
L 165.576237 49.227279 
L 165.901216 49.652699 
L 166.226196 47.559877 
L 166.876155 45.689925 
L 167.201134 45.777884 
L 167.526114 45.581819 
L 167.851093 44.446014 
L 168.176073 45.40004 
L 168.501052 43.368424 
L 168.826032 44.503387 
L 169.151011 46.748637 
L 169.475991 45.490304 
L 169.800971 48.87025 
L 170.12595 45.1965 
L 170.45093 45.725865 
L 171.100889 48.694689 
L 171.425868 48.807605 
L 171.750848 48.631199 
L 172.075827 48.865638 
L 172.400807 49.769318 
L 172.725786 47.694886 
L 173.050766 47.35684 
L 173.375745 47.199341 
L 173.700725 47.965799 
L 174.025704 46.964334 
L 174.350684 43.549585 
L 174.675663 45.668116 
L 175.000643 44.513956 
L 175.325622 44.256114 
L 175.650602 47.574849 
L 175.975581 47.125101 
L 176.300561 50.395342 
L 176.625541 50.155264 
L 176.95052 48.207778 
L 177.2755 47.547155 
L 177.600479 46.580335 
L 178.575418 47.565689 
L 178.900397 45.569122 
L 179.550356 46.493087 
L 179.875336 45.580419 
L 180.200315 45.020004 
L 180.525295 41.99509 
L 180.850274 44.874708 
L 181.825213 46.860074 
L 182.150192 46.571494 
L 182.475172 45.744962 
L 182.800152 46.009175 
L 183.125131 44.330149 
L 183.450111 44.115502 
L 183.77509 44.987092 
L 184.10007 45.455754 
L 184.425049 44.381422 
L 185.075008 47.387596 
L 185.724967 42.839507 
L 186.049947 43.481068 
L 186.374926 43.004847 
L 186.699906 44.811398 
L 187.024885 44.066462 
L 187.349865 46.065441 
L 187.674844 46.49631 
L 187.999824 46.042153 
L 188.324803 46.638028 
L 188.649783 43.045716 
L 188.974762 44.24992 
L 189.299742 46.780663 
L 189.624722 46.481951 
L 189.949701 47.964031 
L 190.274681 45.913235 
L 190.92464 44.214679 
L 191.249619 44.698555 
L 191.574599 45.628531 
L 191.899578 47.150361 
L 192.224558 46.947484 
L 192.549537 45.052569 
L 192.874517 45.003411 
L 193.199496 44.387603 
L 193.524476 44.705697 
L 193.849455 46.863957 
L 194.174435 47.36281 
L 194.499414 48.695539 
L 194.824394 47.999284 
L 195.149373 47.889694 
L 195.474353 46.454882 
L 195.799333 47.315387 
L 196.124312 47.282087 
L 196.449292 47.691325 
L 196.774271 47.830743 
L 197.099251 48.334109 
L 197.42423 50.198521 
L 198.399169 45.394911 
L 199.049128 46.56451 
L 199.374107 47.96237 
L 199.699087 47.753507 
L 200.024066 48.124786 
L 200.349046 48.032065 
L 200.674025 48.587108 
L 200.999005 44.942551 
L 201.323984 45.872797 
L 201.648964 50.00049 
L 202.298923 47.109573 
L 202.623903 49.519676 
L 202.948882 47.518373 
L 203.273862 46.324604 
L 203.598841 47.336357 
L 203.923821 46.261937 
L 204.2488 46.010751 
L 204.57378 48.163954 
L 204.898759 47.297158 
L 205.223739 48.113502 
L 205.548718 47.397874 
L 205.873698 46.07704 
L 206.198677 47.668339 
L 206.523657 45.4885 
L 206.848636 47.31228 
L 207.173616 48.123718 
L 207.498595 46.155181 
L 207.823575 48.471461 
L 208.148554 48.131943 
L 208.473534 48.05574 
L 208.798514 46.667547 
L 209.123493 46.767398 
L 209.448473 45.917175 
L 209.773452 45.803944 
L 210.098432 47.80322 
L 210.748391 48.33886 
L 211.39835 46.612222 
L 211.723329 43.048206 
L 212.048309 43.314849 
L 212.373288 45.517864 
L 212.698268 43.168809 
L 213.023247 44.418585 
L 213.348227 44.689806 
L 213.673206 45.809961 
L 213.998186 45.698499 
L 214.323165 47.365296 
L 214.648145 47.168074 
L 214.973124 46.114552 
L 215.298104 46.041351 
L 215.623084 46.965734 
L 215.948063 46.671107 
L 216.273043 47.174668 
L 216.598022 46.704367 
L 216.923002 46.647972 
L 217.247981 44.994513 
L 217.572961 45.587957 
L 217.89794 46.715211 
L 218.22292 47.344355 
L 218.547899 44.549021 
L 218.872879 46.826237 
L 219.197858 47.603786 
L 219.522838 45.396453 
L 219.847817 47.846122 
L 220.172797 45.834432 
L 220.497776 47.862075 
L 220.822756 47.816949 
L 221.147735 45.156993 
L 221.472715 45.663604 
L 221.797695 45.388984 
L 222.122674 43.380104 
L 222.772633 47.741434 
L 223.097613 45.977975 
L 223.422592 47.474399 
L 223.747572 46.274891 
L 224.072551 46.59906 
L 224.397531 49.714631 
L 224.72251 45.123672 
L 225.04749 46.794249 
L 225.697449 45.924381 
L 226.022428 42.345224 
L 226.672387 46.545279 
L 226.997367 45.945916 
L 227.647326 47.419236 
L 227.972305 46.858662 
L 228.297285 48.640144 
L 228.622265 46.562309 
L 228.947244 46.417178 
L 229.272224 46.930731 
L 229.597203 46.668826 
L 229.922183 47.66103 
L 230.247162 48.031249 
L 230.572142 47.575136 
L 230.897121 46.788896 
L 231.222101 44.818153 
L 231.54708 45.529642 
L 231.87206 44.392692 
L 232.197039 44.330191 
L 232.522019 45.857487 
L 232.846998 45.449794 
L 233.171978 48.022232 
L 233.821937 46.824324 
L 234.146916 48.774714 
L 234.471896 48.314014 
L 234.796876 46.86292 
L 235.121855 46.652833 
L 235.446835 45.699915 
L 235.771814 47.806547 
L 236.096794 49.054859 
L 236.746753 43.873348 
L 237.071732 45.480617 
L 237.396712 45.322826 
L 237.721691 44.642858 
L 238.046671 44.973484 
L 238.37165 43.856498 
L 238.69663 45.124696 
L 239.021609 45.133137 
L 239.346589 47.16901 
L 239.671568 45.921685 
L 240.646507 50.42986 
L 241.296466 45.663005 
L 241.621446 45.801897 
L 241.946425 46.453131 
L 242.271405 48.269175 
L 242.596384 49.211594 
L 242.921364 49.128179 
L 243.246343 48.831739 
L 243.571323 47.402471 
L 244.221282 46.240291 
L 244.546261 47.190201 
L 244.871241 44.570893 
L 245.19622 44.027994 
L 245.5212 45.722908 
L 245.846179 46.669316 
L 246.171159 45.5467 
L 246.496138 46.496823 
L 246.821118 48.433088 
L 247.146097 45.979772 
L 247.796057 49.577429 
L 248.446016 47.499251 
L 248.770995 47.645219 
L 249.095975 49.049157 
L 250.070913 47.800878 
L 250.395893 48.007871 
L 250.720872 45.917774 
L 251.045852 46.996791 
L 251.370831 47.055454 
L 251.695811 47.480338 
L 252.02079 45.482355 
L 252.34577 46.964873 
L 252.670749 46.201206 
L 252.995729 46.227763 
L 253.320708 45.003271 
L 253.645688 44.270347 
L 254.295647 46.485722 
L 254.620627 45.494433 
L 254.945606 44.925256 
L 255.270586 48.183512 
L 255.595565 48.390191 
L 255.920545 49.494591 
L 256.245524 49.208899 
L 256.570504 47.12948 
L 256.895483 47.36364 
L 257.220463 45.371753 
L 257.545442 48.584794 
L 257.870422 48.50496 
L 258.195401 48.067244 
L 258.520381 46.733591 
L 259.17034 45.743919 
L 259.495319 44.320563 
L 259.820299 45.503488 
L 260.145278 46.075979 
L 260.470258 45.702129 
L 260.795238 44.632886 
L 261.120217 46.330155 
L 261.445197 47.28626 
L 261.770176 46.483367 
L 262.095156 47.707435 
L 262.420135 46.869176 
L 263.070094 50.720374 
L 263.395074 49.342283 
L 263.720053 52.109661 
L 264.370012 48.735244 
L 264.694992 47.27338 
L 265.019971 46.99315 
L 265.344951 47.386488 
L 265.66993 47.583355 
L 265.99491 45.954791 
L 266.319889 45.305058 
L 266.644869 48.33628 
L 266.969848 46.42227 
L 267.294828 45.959459 
L 267.619808 46.63872 
L 267.944787 47.631142 
L 268.269767 46.947416 
L 268.594746 46.75652 
L 268.919726 47.699056 
L 269.569685 45.770164 
L 269.894664 43.372581 
L 270.219644 45.1462 
L 270.544623 49.277499 
L 271.194582 44.962111 
L 271.519562 46.335572 
L 272.169521 45.278852 
L 272.4945 45.254635 
L 272.81948 44.792234 
L 273.144459 46.096619 
L 273.794419 47.399992 
L 274.119398 47.046891 
L 274.444378 47.824003 
L 274.769357 46.903547 
L 275.094337 45.268626 
L 275.419316 46.202643 
L 275.744296 44.439146 
L 276.394255 45.371105 
L 276.719234 43.146052 
L 277.044214 45.490396 
L 277.369193 43.86512 
L 277.694173 46.726754 
L 278.019152 46.911351 
L 278.344132 44.472562 
L 278.669111 45.826861 
L 278.994091 44.351539 
L 279.31907 44.133922 
L 279.969029 45.927885 
L 280.294009 45.461877 
L 280.618989 45.608462 
L 280.943968 44.526062 
L 281.268948 45.583143 
L 281.593927 45.390638 
L 281.918907 44.880693 
L 282.243886 44.790537 
L 282.568866 45.363256 
L 282.893845 46.524935 
L 283.218825 45.666614 
L 283.543804 45.659072 
L 283.868784 45.44854 
L 284.193763 46.187598 
L 284.518743 46.43841 
L 284.843722 45.516451 
L 285.168702 46.897598 
L 285.493681 45.386408 
L 285.818661 46.281663 
L 286.14364 45.825477 
L 286.46862 46.354976 
L 286.7936 45.806172 
L 287.118579 42.194401 
L 287.443559 42.68564 
L 287.768538 45.379198 
L 288.093518 45.931373 
L 288.418497 43.957408 
L 288.743477 43.287206 
L 289.068456 43.674344 
L 289.393436 43.627312 
L 289.718415 45.168066 
L 290.043395 44.201779 
L 290.368374 45.171185 
L 290.693354 45.183945 
L 291.018333 44.552898 
L 291.343313 44.970708 
L 291.668292 42.605634 
L 291.993272 45.07084 
L 292.318251 46.155956 
L 292.643231 44.203686 
L 292.96821 44.821863 
L 293.29319 44.831916 
L 293.61817 44.579161 
L 293.943149 43.782159 
L 294.593108 47.004569 
L 294.918088 49.286179 
L 295.243067 46.75777 
L 295.568047 48.007222 
L 296.218006 46.379703 
L 296.542985 46.513021 
L 297.192944 42.68783 
L 297.517924 43.795364 
L 297.842903 42.746152 
L 298.167883 44.274396 
L 298.492862 43.788774 
L 298.817842 44.281672 
L 299.142821 45.848256 
L 299.467801 48.558335 
L 299.792781 48.494717 
L 300.11776 47.856944 
L 300.44274 47.653642 
L 300.767719 46.905252 
L 301.092699 48.228847 
L 301.417678 46.5094 
L 301.742658 45.877387 
L 302.067637 46.285582 
L 302.392617 47.80017 
L 302.717596 45.826345 
L 303.042576 45.57485 
L 303.367555 45.111271 
L 303.692535 45.125808 
L 304.017514 46.580677 
L 304.342494 46.636589 
L 304.667473 47.826354 
L 304.992453 45.315561 
L 305.317432 45.87684 
L 305.642412 47.927731 
L 305.967391 46.87709 
L 306.292371 45.279293 
L 306.617351 45.794352 
L 307.26731 47.958038 
L 307.592289 46.315334 
L 307.917269 46.730601 
L 308.242248 47.547131 
L 308.567228 47.067918 
L 308.892207 44.366219 
L 309.217187 45.922724 
L 309.542166 44.586309 
L 310.192125 46.925711 
L 310.517105 47.222025 
L 310.842084 49.347216 
L 311.167064 49.260304 
L 311.492043 49.311762 
L 311.817023 45.842222 
L 312.466982 47.189004 
L 312.791962 48.247408 
L 313.116941 47.419577 
L 313.441921 46.278337 
L 313.7669 47.896498 
L 314.09188 48.388017 
L 314.416859 46.550559 
L 314.741839 48.114808 
L 315.391798 43.468581 
L 315.716777 44.209589 
L 316.041757 46.099559 
L 316.366736 44.32983 
L 316.691716 45.019231 
L 317.016695 44.691478 
L 317.341675 45.577487 
L 317.666654 43.977233 
L 317.991634 45.094452 
L 318.316613 45.754555 
L 318.641593 46.814033 
L 318.966572 45.635152 
L 319.291552 44.037937 
L 319.616532 43.273865 
L 320.266491 45.464115 
L 320.59147 47.352021 
L 320.91645 46.30506 
L 321.241429 46.340104 
L 321.566409 45.645244 
L 321.891388 45.977536 
L 322.216368 46.619592 
L 322.541347 47.571779 
L 322.866327 49.924571 
L 323.191306 49.987278 
L 323.841265 47.283926 
L 324.166245 48.434355 
L 324.491224 47.146418 
L 324.816204 47.287684 
L 325.141183 44.406314 
L 325.466163 46.255196 
L 325.791143 47.293953 
L 326.116122 47.573154 
L 326.441102 45.945399 
L 326.766081 45.341535 
L 327.091061 45.802521 
L 327.41604 45.173197 
L 327.74102 43.503317 
L 328.065999 45.678544 
L 328.715958 44.002529 
L 329.690897 48.254637 
L 330.015876 48.690237 
L 330.340856 45.961749 
L 330.665835 47.180252 
L 330.990815 46.679262 
L 331.640774 44.430361 
L 331.965753 46.829872 
L 332.290733 46.541732 
L 332.615713 43.121907 
L 332.940692 47.916371 
L 333.265672 46.776155 
L 333.590651 46.596539 
L 333.915631 50.015414 
L 334.24061 46.855868 
L 334.56559 48.373852 
L 334.890569 46.152134 
L 335.215549 47.026001 
L 335.865508 46.320035 
L 336.190487 45.615905 
L 336.515467 45.805401 
L 336.840446 47.829992 
L 337.165426 46.614025 
L 337.490405 44.111958 
L 337.815385 45.837161 
L 338.140364 44.623024 
L 338.465344 45.905273 
L 338.790324 46.524333 
L 339.115303 44.665214 
L 339.440283 44.436146 
L 339.765262 46.428193 
L 340.090242 46.071452 
L 340.415221 43.419317 
L 341.06518 47.133177 
L 341.39016 44.827783 
L 341.715139 47.235647 
L 342.040119 45.779221 
L 342.365098 46.093878 
L 342.690078 43.906701 
L 343.015057 45.326388 
L 343.340037 44.795081 
L 343.665016 45.689836 
L 343.989996 46.001353 
L 344.314975 46.515534 
L 344.639955 44.977796 
L 344.964934 44.925813 
L 345.289914 45.574049 
L 345.614894 47.454759 
L 345.939873 47.022282 
L 346.264853 44.877005 
L 346.589832 44.668399 
L 347.239791 45.142505 
L 347.564771 46.911542 
L 347.88975 46.788454 
L 348.21473 46.944002 
L 348.539709 47.314682 
L 348.864689 45.936144 
L 349.189668 46.538035 
L 349.839627 44.736042 
L 350.164607 46.027021 
L 350.489586 47.830559 
L 350.814566 47.909038 
L 351.139545 47.77349 
L 351.464525 49.771669 
L 351.789505 45.961106 
L 352.114484 46.516443 
L 352.439464 46.14062 
L 352.764443 48.360572 
L 353.089423 47.687782 
L 353.414402 45.586555 
L 353.739382 45.914553 
L 354.064361 45.383562 
L 354.389341 44.488604 
L 354.71432 46.299655 
L 355.0393 45.954758 
L 355.364279 45.354052 
L 355.689259 46.093583 
L 356.014238 47.998673 
L 356.339218 45.746011 
L 356.664197 45.679424 
L 356.989177 47.449148 
L 357.314156 44.810701 
L 357.639136 45.262162 
L 357.964115 44.565162 
L 358.289095 46.53079 
L 358.614075 46.957497 
L 358.939054 45.863276 
L 359.264034 46.783658 
L 359.589013 46.867181 
L 359.913993 47.372558 
L 360.563952 46.772081 
L 360.888931 45.425411 
L 361.213911 47.320107 
L 361.53889 47.899443 
L 361.86387 44.596414 
L 362.188849 45.936835 
L 362.513829 45.494396 
L 362.838808 45.343413 
L 363.163788 43.803585 
L 363.488767 43.433473 
L 364.138726 44.594388 
L 364.463706 44.549737 
L 364.788686 45.404609 
L 365.113665 45.43259 
L 365.438645 47.320885 
L 365.763624 47.183036 
L 366.088604 48.719752 
L 366.738563 49.202607 
L 367.063542 49.634055 
L 367.388522 49.184662 
L 367.713501 48.041553 
L 368.038481 45.580518 
L 368.36346 49.645138 
L 368.68844 45.744953 
L 369.013419 46.823232 
L 369.338399 45.334527 
L 369.663378 47.637423 
L 369.988358 46.726691 
L 370.313337 45.461198 
L 370.638317 45.344669 
L 370.963296 43.373848 
L 371.288276 46.887938 
L 371.613256 45.614665 
L 371.938235 45.868431 
L 372.263215 47.257862 
L 372.588194 46.139672 
L 372.913174 46.52269 
L 373.238153 45.226295 
L 373.888112 46.880398 
L 374.213092 47.401004 
L 374.538071 44.257121 
L 374.863051 47.74746 
L 375.18803 49.030707 
L 375.51301 48.831177 
L 375.837989 47.926505 
L 376.162969 49.321742 
L 376.487948 46.7331 
L 376.812928 46.981115 
L 377.137907 48.633739 
L 377.462887 47.038851 
L 377.787867 48.069696 
L 378.112846 46.809404 
L 378.437826 46.793675 
L 378.762805 46.938988 
L 379.087785 44.755466 
L 379.412764 44.026719 
L 379.737744 44.667418 
L 380.062723 47.944956 
L 380.387703 47.502136 
L 380.712682 48.162426 
L 381.037662 47.992415 
L 381.362641 49.27355 
L 381.687621 50.102373 
L 382.0126 47.468767 
L 382.33758 48.498352 
L 382.662559 47.885427 
L 382.987539 48.081892 
L 383.312518 47.481387 
L 383.637498 45.209076 
L 384.287457 44.187816 
L 384.612437 44.808294 
L 384.937416 46.697223 
L 385.262396 45.924944 
L 385.587375 45.46181 
L 385.912355 46.485731 
L 386.237334 46.27373 
L 386.562314 45.689285 
L 386.887293 49.272552 
L 387.212273 48.586037 
L 387.212273 48.586037 
" style="fill:none;stroke:#1f77b4;stroke-linecap:square;stroke-width:1.5;"/>
   </g>
   <g id="line2d_15">
    <path clip-path="url(#p1be9faec43)" d="M 62.557727 131.21276 
L 62.882707 133.144288 
L 63.207686 143.470735 
L 63.532666 165.450211 
L 63.857645 165.450211 
L 64.182625 176.992999 
L 64.507604 176.992999 
L 64.832584 178.583981 
L 69.382297 178.583981 
L 69.707277 185.764427 
L 80.106622 185.860985 
L 80.431601 192.708884 
L 86.606212 192.708884 
L 86.931192 193.505151 
L 106.104984 193.60284 
L 106.429963 201.471156 
L 120.729062 201.471156 
L 121.379021 207.788259 
L 131.128407 207.788259 
L 131.453387 213.405141 
L 134.053223 213.405141 
L 134.703182 214.160087 
L 135.353141 214.160087 
L 135.67812 219.395668 
L 147.702363 219.453948 
L 148.027342 227.706798 
L 149.977219 227.706798 
L 150.302199 229.930564 
L 157.451749 229.930564 
L 157.776728 231.256358 
L 174.350684 231.256358 
L 174.675663 233.125128 
L 182.150192 233.125128 
L 182.475172 234.541318 
L 201.648964 234.541318 
L 201.973943 237.105459 
L 288.418497 237.105459 
L 288.743477 237.504923 
L 333.915631 237.555575 
L 334.24061 237.760153 
L 340.415221 237.760153 
L 340.740201 262.818296 
L 387.212273 262.876496 
L 387.212273 262.876496 
" style="fill:none;stroke:#ff7f0e;stroke-linecap:square;stroke-width:1.5;"/>
   </g>
   <g id="patch_3">
    <path d="M 46.325 274.972496 
L 46.325 8.860496 
" style="fill:none;stroke:#000000;stroke-linecap:square;stroke-linejoin:miter;stroke-width:0.8;"/>
   </g>
   <g id="patch_4">
    <path d="M 403.445 274.972496 
L 403.445 8.860496 
" style="fill:none;stroke:#000000;stroke-linecap:square;stroke-linejoin:miter;stroke-width:0.8;"/>
   </g>
   <g id="patch_5">
    <path d="M 46.325 274.972496 
L 403.445 274.972496 
" style="fill:none;stroke:#000000;stroke-linecap:square;stroke-linejoin:miter;stroke-width:0.8;"/>
   </g>
   <g id="patch_6">
    <path d="M 46.325 8.860496 
L 403.445 8.860496 
" style="fill:none;stroke:#000000;stroke-linecap:square;stroke-linejoin:miter;stroke-width:0.8;"/>
   </g>
   <g id="legend_1">
    <g id="patch_7">
     <path d="M 53.325 269.972496 
L 195.325 269.972496 
Q 197.325 269.972496 197.325 267.972496 
L 197.325 240.300621 
Q 197.325 238.300621 195.325 238.300621 
L 53.325 238.300621 
Q 51.325 238.300621 51.325 240.300621 
L 51.325 267.972496 
Q 51.325 269.972496 53.325 269.972496 
z
" style="fill:#ffffff;opacity:0.8;stroke:#cccccc;stroke-linejoin:miter;"/>
    </g>
    <g id="line2d_16">
     <path d="M 55.325 246.886558 
L 75.325 246.886558 
" style="fill:none;stroke:#1f77b4;stroke-linecap:square;stroke-width:1.5;"/>
    </g>
    <g id="line2d_17"/>
    <g id="text_16">
     <!-- 种群个体平均目标函数值 -->
     <g transform="translate(83.325 250.386558)scale(0.1 -0.1)">
      <defs>
       <path d="M 4225 4000 
Q 4225 4975 4200 5275 
L 4725 5275 
Q 4700 5000 4700 4000 
L 6000 4000 
Q 5975 3725 5975 3250 
L 5975 1550 
Q 5975 1275 6000 925 
L 5500 925 
L 5500 1425 
L 4700 1425 
L 4700 375 
Q 4700 -275 4725 -700 
L 4200 -700 
Q 4225 -275 4225 375 
L 4225 1425 
L 3425 1425 
L 3425 825 
L 2925 825 
Q 2950 1125 2950 1500 
L 2950 3200 
Q 2950 3725 2925 4000 
L 4225 4000 
z
M 350 3250 
Q 725 3225 1225 3225 
L 1425 3225 
L 1425 4325 
Q 1175 4250 575 4125 
Q 475 4350 350 4575 
Q 900 4600 1412 4737 
Q 1925 4875 2350 5100 
Q 2500 4900 2725 4625 
Q 2475 4600 2300 4550 
Q 2125 4500 1900 4450 
L 1900 3225 
Q 2225 3225 2700 3250 
L 2700 2800 
Q 2225 2825 1900 2825 
L 1900 225 
Q 1900 -125 1925 -650 
L 1400 -650 
Q 1425 -125 1425 225 
L 1425 1875 
Q 1225 1375 1062 1075 
Q 900 775 625 350 
Q 425 625 250 850 
Q 600 1225 887 1725 
Q 1175 2225 1300 2825 
L 925 2825 
Q 575 2825 350 2800 
L 350 3250 
z
M 4225 1825 
L 4225 3600 
L 3425 3600 
L 3425 1825 
L 4225 1825 
z
M 5500 1825 
L 5500 3600 
L 4700 3600 
L 4700 1825 
L 5500 1825 
z
M 2375 2475 
Q 2450 2300 2575 2125 
Q 2700 1950 2850 1625 
Q 2625 1525 2425 1375 
Q 2300 1650 2212 1837 
Q 2125 2025 1975 2225 
Q 2125 2325 2375 2475 
z
" id="SimHei-79cd" transform="scale(0.015625)"/>
       <path d="M 2500 -425 
L 2500 25 
L 1475 25 
L 1475 -600 
L 1000 -600 
Q 1025 -225 1025 1400 
Q 825 1100 600 850 
Q 450 1050 200 1125 
Q 450 1375 700 1725 
Q 950 2075 1050 2375 
Q 850 2375 550 2350 
L 550 2775 
Q 900 2750 1125 2750 
Q 1200 3125 1200 3400 
Q 675 3400 375 3375 
L 375 3800 
Q 700 3775 1200 3775 
L 1200 4475 
Q 1050 4475 650 4450 
L 650 4900 
Q 1025 4875 1275 4875 
L 2950 4875 
Q 2925 4500 2925 3775 
Q 3075 3775 3275 3800 
L 3275 3375 
Q 3075 3400 2925 3400 
Q 2925 2675 2950 2375 
L 1500 2375 
Q 1350 1925 1225 1750 
L 2975 1750 
Q 2950 1425 2950 675 
Q 2950 -75 2975 -425 
L 2500 -425 
z
M 4875 1275 
Q 5825 1275 6075 1300 
L 6075 875 
Q 5825 900 4875 900 
L 4875 225 
Q 4875 -225 4900 -700 
L 4400 -700 
Q 4425 -225 4425 225 
L 4425 900 
Q 3550 900 3200 875 
L 3200 1300 
Q 3550 1275 4425 1275 
L 4425 2250 
Q 3675 2250 3400 2225 
L 3400 2650 
Q 3700 2625 4425 2625 
L 4425 3500 
Q 3775 3500 3375 3475 
L 3375 3900 
Q 3775 3875 4750 3875 
Q 5025 4475 5225 5175 
Q 5525 5025 5800 4975 
Q 5700 4825 5550 4562 
Q 5400 4300 5200 3875 
Q 5625 3875 5950 3900 
L 5950 3475 
Q 5650 3500 4875 3500 
L 4875 2625 
L 5225 2625 
L 5875 2650 
L 5875 2225 
Q 5525 2250 4875 2250 
L 4875 1275 
z
M 2500 400 
L 2500 1350 
L 1475 1350 
L 1475 400 
L 2500 400 
z
M 2475 3775 
L 2475 4475 
L 1650 4475 
L 1650 3775 
L 2475 3775 
z
M 2475 2750 
L 2475 3400 
L 1650 3400 
Q 1625 3125 1575 2750 
L 2475 2750 
z
M 4025 4175 
Q 3800 4600 3575 4925 
Q 3750 5000 3925 5150 
Q 4150 4900 4425 4450 
Q 4175 4300 4025 4175 
z
" id="SimHei-7fa4" transform="scale(0.015625)"/>
       <path d="M 3425 4825 
Q 4475 3275 6150 2775 
Q 5900 2475 5775 2200 
Q 4150 2900 3150 4425 
Q 2225 2950 675 2125 
Q 550 2350 250 2600 
Q 1450 3100 2112 3875 
Q 2775 4650 3000 5275 
Q 3300 5150 3600 5050 
Q 3500 4925 3425 4825 
z
M 2925 2350 
Q 2925 2750 2875 3375 
L 3450 3375 
Q 3425 2950 3425 2325 
L 3425 550 
Q 3425 -25 3450 -625 
L 2900 -625 
Q 2925 0 2925 525 
L 2925 2350 
z
" id="SimHei-4e2a" transform="scale(0.015625)"/>
       <path d="M 3650 3850 
Q 3650 4750 3625 5125 
L 4125 5125 
Q 4100 4775 4100 3850 
L 5200 3850 
Q 5700 3850 5925 3875 
L 5925 3425 
Q 5700 3450 5200 3450 
L 4525 3450 
Q 4925 1850 6200 1200 
Q 5925 1050 5775 775 
Q 4425 1800 4100 3425 
L 4100 1025 
Q 4825 1025 5050 1050 
L 5050 600 
Q 4825 625 4100 625 
Q 4100 75 4125 -575 
L 3625 -575 
Q 3650 100 3650 625 
Q 3200 625 2700 600 
L 2700 1050 
Q 3200 1025 3650 1025 
L 3650 3450 
Q 3375 1800 2000 650 
Q 1850 875 1550 1025 
Q 2850 1875 3200 3450 
L 2675 3450 
Q 2275 3450 1975 3425 
L 1975 3875 
Q 2275 3850 2675 3850 
L 3650 3850 
z
M 2000 4900 
Q 1825 4675 1525 3775 
L 1525 575 
Q 1525 -200 1550 -550 
L 1050 -550 
Q 1075 -225 1075 550 
L 1075 2900 
Q 950 2625 575 2050 
Q 450 2275 225 2425 
Q 525 2725 925 3612 
Q 1325 4500 1425 5125 
Q 1700 5000 2000 4900 
z
" id="SimHei-4f53" transform="scale(0.015625)"/>
       <path d="M 4525 4825 
Q 4900 4825 5450 4850 
L 5450 4375 
Q 4925 4400 4525 4400 
L 3475 4400 
L 3475 2025 
L 5000 2025 
Q 5550 2025 6025 2050 
L 6025 1575 
Q 5550 1600 5000 1600 
L 3475 1600 
L 3475 450 
Q 3475 -100 3500 -600 
L 2925 -600 
Q 2950 -100 2950 450 
L 2950 1600 
L 1125 1600 
Q 775 1600 375 1575 
L 375 2050 
Q 775 2025 1175 2025 
L 2950 2025 
L 2950 4400 
L 1775 4400 
Q 1400 4400 875 4375 
L 875 4850 
Q 1400 4825 1750 4825 
L 4525 4825 
z
M 3925 2600 
Q 4500 3300 4900 4125 
Q 5150 3950 5400 3825 
Q 4775 2850 4350 2300 
Q 4150 2475 3925 2600 
z
M 1975 2350 
Q 1600 3100 1050 3725 
Q 1250 3875 1450 4050 
Q 2075 3300 2450 2725 
Q 2150 2500 1975 2350 
z
" id="SimHei-5e73" transform="scale(0.015625)"/>
       <path d="M 5775 275 
Q 5775 -325 5362 -450 
Q 4950 -575 4425 -600 
Q 4375 -275 4250 25 
Q 4950 -25 5125 62 
Q 5300 150 5300 500 
L 5375 3700 
L 3550 3700 
Q 3425 3375 3262 3037 
Q 3100 2700 2925 2400 
Q 2675 2550 2475 2625 
Q 3150 3625 3500 5200 
Q 3800 5100 4075 5025 
Q 3975 4875 3875 4650 
Q 3775 4425 3675 4125 
L 5900 4125 
L 5775 275 
z
M 1250 3625 
L 1250 4375 
Q 1250 4775 1225 5100 
L 1775 5100 
Q 1750 4725 1750 4375 
L 1750 3625 
L 1900 3625 
Q 2200 3625 2525 3650 
L 2525 3150 
Q 2200 3175 1900 3175 
L 1750 3175 
L 1750 1100 
L 2500 1375 
Q 2475 1125 2525 900 
Q 1225 475 962 362 
Q 700 250 475 150 
Q 375 475 250 750 
Q 575 800 800 850 
Q 1025 900 1250 975 
L 1250 3175 
L 1125 3175 
Q 850 3175 400 3150 
L 400 3650 
Q 850 3625 1100 3625 
L 1250 3625 
z
M 4950 1625 
Q 4675 1425 4137 1050 
Q 3600 675 3175 300 
Q 3000 575 2850 775 
Q 3350 1050 3762 1325 
Q 4175 1600 4775 2075 
Q 4825 1850 4950 1625 
z
M 3775 3150 
Q 4125 2800 4475 2300 
Q 4250 2125 4100 1975 
Q 3900 2325 3450 2825 
Q 3600 3000 3775 3150 
z
" id="SimHei-5747" transform="scale(0.015625)"/>
       <path d="M 5375 4900 
Q 5350 4175 5350 3525 
L 5350 600 
Q 5350 225 5375 -550 
L 4825 -550 
L 4825 -100 
L 1575 -100 
L 1575 -525 
L 1050 -525 
Q 1075 150 1075 550 
L 1075 3525 
Q 1075 4350 1050 4900 
L 5375 4900 
z
M 4825 300 
L 4825 1475 
L 1575 1475 
L 1575 300 
L 4825 300 
z
M 4825 1875 
L 4825 3000 
L 1575 3000 
L 1575 1875 
L 4825 1875 
z
M 4825 3400 
L 4825 4500 
L 1575 4500 
L 1575 3400 
L 4825 3400 
z
" id="SimHei-76ee" transform="scale(0.015625)"/>
       <path d="M 1275 4400 
Q 1275 4800 1250 5175 
L 1750 5175 
Q 1725 4825 1725 4400 
L 1725 3800 
Q 2125 3800 2575 3825 
L 2575 3350 
Q 2125 3375 1725 3375 
L 1725 2525 
Q 1900 2650 2075 2800 
Q 2400 2275 2650 1775 
Q 2375 1650 2175 1500 
Q 2025 2000 1725 2425 
L 1725 475 
Q 1725 -50 1750 -575 
L 1250 -575 
Q 1275 -25 1275 475 
L 1275 2100 
Q 1025 1400 500 750 
Q 350 950 125 1125 
Q 550 1550 812 2187 
Q 1075 2825 1150 3375 
Q 675 3375 325 3325 
L 325 3825 
Q 800 3800 1275 3800 
L 1275 4400 
z
M 5175 3125 
Q 5675 3125 6050 3150 
L 6050 2675 
Q 5675 2700 5275 2700 
L 4500 2700 
L 4500 175 
Q 4500 -225 4275 -350 
Q 4050 -475 3475 -550 
Q 3425 -250 3275 25 
Q 3775 25 3900 62 
Q 4025 100 4025 350 
L 4025 2700 
L 3400 2700 
Q 2775 2700 2500 2650 
L 2500 3150 
Q 2825 3125 3400 3125 
L 5175 3125 
z
M 4900 4775 
Q 5425 4775 5750 4800 
L 5750 4300 
Q 5275 4350 4750 4350 
L 3525 4350 
Q 3125 4350 2750 4300 
L 2750 4800 
Q 3100 4775 3525 4775 
L 4900 4775 
z
M 5275 2025 
Q 5825 1175 6200 500 
Q 5925 375 5650 200 
Q 5375 925 4825 1725 
Q 5075 1850 5275 2025 
z
M 3600 1775 
Q 3500 1625 3225 975 
Q 2950 325 2800 50 
Q 2575 175 2300 275 
Q 2625 775 2787 1187 
Q 2950 1600 3050 2000 
Q 3325 1875 3600 1775 
z
" id="SimHei-6807" transform="scale(0.015625)"/>
       <path d="M 1200 200 
L 5200 200 
L 5200 2225 
Q 5200 2600 5150 3075 
L 5700 3075 
Q 5675 2500 5675 2225 
L 5675 50 
Q 5675 -275 5700 -625 
L 5200 -625 
L 5200 -225 
L 700 -225 
Q 725 50 725 1375 
Q 725 2700 700 3075 
L 1225 3075 
Q 1200 2800 1200 2475 
L 1200 200 
z
M 5450 4925 
L 5450 4450 
Q 5075 4325 4475 4037 
Q 3875 3750 3475 3575 
L 3475 1100 
Q 3475 700 3200 587 
Q 2925 475 2525 400 
Q 2475 675 2350 950 
Q 2750 950 2887 1000 
Q 3025 1050 3025 1375 
L 3025 3075 
Q 3025 3550 2975 3850 
Q 3225 3925 3700 4125 
Q 4175 4325 4500 4500 
L 1950 4500 
Q 1425 4500 1025 4475 
L 1025 4950 
Q 1525 4925 1950 4925 
L 5450 4925 
z
M 4500 1750 
Q 4700 1575 5000 1275 
Q 4825 1125 4650 900 
Q 4400 1175 4200 1375 
Q 4000 1575 3600 1925 
Q 3775 2100 3900 2275 
L 4500 1750 
z
M 2700 1800 
Q 2525 1675 2237 1487 
Q 1950 1300 1600 1000 
Q 1525 1175 1325 1425 
Q 1500 1500 1887 1737 
Q 2275 1975 2550 2225 
Q 2600 2025 2700 1800 
z
M 4975 3175 
Q 4800 3100 4562 2912 
Q 4325 2725 4000 2475 
Q 3875 2700 3750 2850 
Q 4025 3050 4200 3200 
Q 4375 3350 4600 3575 
Q 4775 3375 4975 3175 
z
M 2350 2550 
Q 2200 2750 2000 2937 
Q 1800 3125 1475 3350 
Q 1650 3525 1750 3700 
Q 2025 3500 2650 2950 
Q 2475 2725 2350 2550 
z
" id="SimHei-51fd" transform="scale(0.015625)"/>
       <path d="M 4525 4925 
Q 4475 4800 4400 4587 
Q 4325 4375 4175 3825 
L 5325 3825 
Q 5575 3825 5925 3850 
L 5925 3400 
Q 5650 3425 5500 3425 
Q 5500 3025 5362 2162 
Q 5225 1300 4875 675 
Q 5125 375 5437 137 
Q 5750 -100 6025 -200 
Q 5725 -425 5625 -625 
Q 5325 -450 5075 -225 
Q 4825 0 4575 325 
Q 4300 25 3987 -187 
Q 3675 -400 3200 -650 
Q 3075 -425 2850 -300 
Q 3225 -150 3650 125 
Q 4075 400 4300 675 
Q 4125 1025 3962 1425 
Q 3800 1825 3675 2475 
Q 3600 2275 3425 1950 
Q 3250 2050 3000 2150 
Q 3400 2850 3650 3675 
Q 3900 4500 3975 5100 
Q 4275 4975 4525 4925 
z
M 2100 2250 
Q 2000 2150 1875 1925 
L 3250 1925 
Q 3100 1300 2725 675 
Q 3125 525 3350 400 
Q 3225 225 3125 25 
Q 2900 175 2450 325 
Q 1950 -225 725 -650 
Q 600 -375 400 -275 
Q 1575 0 2000 475 
Q 1300 650 850 775 
Q 1000 1000 1250 1525 
Q 1000 1525 425 1500 
L 425 1950 
Q 900 1925 1400 1925 
Q 1500 2150 1550 2425 
Q 1825 2325 2100 2250 
z
M 1775 3950 
Q 1775 4550 1750 5100 
L 2250 5100 
Q 2225 4575 2225 3950 
Q 3075 3950 3425 3975 
L 3425 3525 
Q 3075 3550 2225 3550 
Q 2225 2825 2250 2425 
L 1750 2425 
Q 1775 2775 1775 3300 
Q 1650 3100 1300 2787 
Q 950 2475 650 2300 
Q 525 2525 275 2625 
Q 500 2700 875 2975 
Q 1250 3250 1450 3550 
Q 950 3550 500 3525 
L 500 3975 
Q 925 3950 1775 3950 
z
M 3975 3175 
Q 4200 1700 4600 1125 
Q 4850 1700 4937 2287 
Q 5025 2875 5050 3425 
L 4075 3425 
L 3975 3175 
z
M 1450 1000 
Q 1750 925 2275 800 
Q 2475 1050 2650 1525 
L 1725 1525 
Q 1600 1275 1450 1000 
z
M 3325 4825 
Q 3200 4625 3125 4450 
Q 3050 4275 2925 4025 
Q 2725 4125 2525 4175 
Q 2725 4500 2900 5000 
Q 3150 4875 3325 4825 
z
M 2575 3375 
Q 2900 3050 3200 2725 
Q 3050 2600 2875 2425 
Q 2525 2850 2300 3100 
Q 2450 3225 2575 3375 
z
M 925 5000 
Q 1275 4650 1500 4300 
L 1125 4075 
Q 950 4425 600 4725 
Q 825 4875 925 5000 
z
" id="SimHei-6570" transform="scale(0.015625)"/>
       <path d="M 3675 4450 
L 3675 5100 
Q 3975 5075 4350 5050 
Q 4225 4875 4200 4450 
L 5125 4450 
Q 5550 4450 5875 4475 
L 5875 4025 
Q 5525 4050 5125 4050 
L 4175 4050 
L 4125 3500 
L 5400 3500 
Q 5375 3200 5375 2700 
L 5375 150 
Q 5875 150 6100 175 
L 6100 -275 
Q 5775 -250 5200 -250 
L 2850 -250 
Q 2275 -250 1900 -275 
L 1900 175 
Q 2125 150 2600 150 
L 2600 2700 
Q 2600 3175 2575 3500 
L 3600 3500 
L 3650 4050 
L 3200 4050 
Q 2575 4050 2225 4025 
L 2225 4475 
Q 2550 4450 3200 4450 
L 3675 4450 
z
M 2225 4900 
Q 2025 4675 1650 3750 
L 1650 450 
Q 1650 -75 1675 -550 
L 1150 -550 
Q 1175 -125 1175 375 
L 1175 2950 
Q 875 2450 625 2150 
Q 425 2425 250 2575 
Q 500 2825 937 3537 
Q 1375 4250 1625 5150 
Q 1975 4975 2225 4900 
z
M 4925 2650 
L 4925 3150 
L 3075 3150 
L 3075 2650 
L 4925 2650 
z
M 4925 150 
L 4925 625 
L 3075 625 
L 3075 150 
L 4925 150 
z
M 4925 1000 
L 4925 1450 
L 3075 1450 
L 3075 1000 
L 4925 1000 
z
M 4925 1825 
L 4925 2275 
L 3075 2275 
L 3075 1825 
L 4925 1825 
z
" id="SimHei-503c" transform="scale(0.015625)"/>
      </defs>
      <use xlink:href="#SimHei-79cd"/>
      <use x="100" xlink:href="#SimHei-7fa4"/>
      <use x="200" xlink:href="#SimHei-4e2a"/>
      <use x="300" xlink:href="#SimHei-4f53"/>
      <use x="400" xlink:href="#SimHei-5e73"/>
      <use x="500" xlink:href="#SimHei-5747"/>
      <use x="600" xlink:href="#SimHei-76ee"/>
      <use x="700" xlink:href="#SimHei-6807"/>
      <use x="800" xlink:href="#SimHei-51fd"/>
      <use x="900" xlink:href="#SimHei-6570"/>
      <use x="1000" xlink:href="#SimHei-503c"/>
     </g>
    </g>
    <g id="line2d_18">
     <path d="M 55.325 261.222496 
L 75.325 261.222496 
" style="fill:none;stroke:#ff7f0e;stroke-linecap:square;stroke-width:1.5;"/>
    </g>
    <g id="line2d_19"/>
    <g id="text_17">
     <!-- 种群最优个体目标函数值 -->
     <g transform="translate(83.325 264.722496)scale(0.1 -0.1)">
      <defs>
       <path d="M 475 275 
Q 675 300 1100 350 
L 1100 2450 
Q 775 2450 425 2425 
L 425 2850 
Q 775 2825 1125 2825 
L 5025 2825 
Q 5475 2825 5900 2850 
L 5900 2425 
Q 5475 2450 5025 2450 
L 3050 2450 
L 3050 675 
L 3400 775 
Q 3400 550 3425 400 
Q 3225 350 3050 325 
Q 3050 -125 3075 -550 
L 2600 -550 
Q 2625 -125 2625 250 
Q 2350 200 1812 87 
Q 1275 -25 650 -175 
Q 575 100 475 275 
z
M 5100 4925 
Q 5075 4600 5075 4325 
L 5075 3875 
Q 5075 3600 5100 3250 
L 1275 3250 
Q 1300 3600 1300 3875 
L 1300 4325 
Q 1300 4600 1275 4925 
L 5100 4925 
z
M 3300 2050 
Q 3750 2025 4125 2025 
L 5375 2025 
Q 5100 975 4725 400 
Q 5350 0 5925 -100 
Q 5700 -275 5650 -500 
Q 5025 -300 4475 150 
Q 4150 -200 3600 -575 
Q 3500 -425 3250 -275 
Q 3775 -100 4150 350 
Q 3725 775 3500 1675 
L 3300 1675 
L 3300 2050 
z
M 4600 4250 
L 4600 4600 
L 1750 4600 
L 1750 4250 
L 4600 4250 
z
M 4600 3575 
L 4600 3900 
L 1750 3900 
L 1750 3575 
L 4600 3575 
z
M 3900 1675 
Q 4000 1075 4400 625 
Q 4700 1050 4850 1675 
L 3900 1675 
z
M 2625 1250 
L 2625 1675 
L 1525 1675 
L 1525 1250 
L 2625 1250 
z
M 2625 575 
L 2625 925 
L 1525 925 
L 1525 425 
L 2625 575 
z
M 2625 2025 
L 2625 2450 
L 1525 2450 
L 1525 2025 
L 2625 2025 
z
" id="SimHei-6700" transform="scale(0.015625)"/>
       <path d="M 4650 350 
Q 4625 100 4825 50 
Q 5025 0 5200 12 
Q 5375 25 5462 125 
Q 5550 225 5650 800 
Q 5825 625 6200 525 
Q 6050 -25 5912 -200 
Q 5775 -375 5475 -400 
L 4700 -400 
Q 4175 -400 4175 200 
L 4175 3050 
L 3850 3050 
Q 3725 600 2375 -550 
Q 2200 -325 1875 -225 
Q 3175 675 3350 3050 
L 2900 3050 
Q 2350 3050 1975 3025 
L 1975 3475 
Q 2350 3450 2900 3450 
L 3375 3450 
Q 3375 4700 3350 5150 
Q 3525 5100 3925 5075 
Q 3850 4700 3850 3450 
L 5200 3450 
Q 5475 3450 5925 3475 
L 5925 3025 
Q 5500 3050 5225 3050 
L 4650 3050 
L 4650 350 
z
M 200 2375 
Q 525 2700 1000 3612 
Q 1475 4525 1600 5200 
Q 1850 5050 2225 4925 
Q 2000 4700 1700 3825 
L 1700 600 
Q 1700 -150 1725 -525 
L 1200 -525 
Q 1225 -175 1225 575 
L 1225 2975 
Q 900 2425 550 1975 
Q 425 2200 200 2375 
z
M 4850 5025 
Q 5000 4800 5150 4587 
Q 5300 4375 5450 4200 
Q 5250 4075 5025 3875 
Q 4875 4175 4450 4725 
Q 4625 4850 4850 5025 
z
" id="SimHei-4f18" transform="scale(0.015625)"/>
      </defs>
      <use xlink:href="#SimHei-79cd"/>
      <use x="100" xlink:href="#SimHei-7fa4"/>
      <use x="200" xlink:href="#SimHei-6700"/>
      <use x="300" xlink:href="#SimHei-4f18"/>
      <use x="400" xlink:href="#SimHei-4e2a"/>
      <use x="500" xlink:href="#SimHei-4f53"/>
      <use x="600" xlink:href="#SimHei-76ee"/>
      <use x="700" xlink:href="#SimHei-6807"/>
      <use x="800" xlink:href="#SimHei-51fd"/>
      <use x="900" xlink:href="#SimHei-6570"/>
      <use x="1000" xlink:href="#SimHei-503c"/>
     </g>
    </g>
   </g>
  </g>
 </g>
 <defs>
  <clipPath id="p1be9faec43">
   <rect height="266.112" width="357.12" x="46.325" y="8.860496"/>
  </clipPath>
 </defs>
</svg>
